<svg width="32" height="32" viewBox="0 0 16 15" fill="none" xmlns="http://www.w3.org/2000/svg">
<path d="M8.13677 3.68159C6.02163 3.68159 4.31555 5.38491 4.31555 7.49663C4.31555 9.60835 6.02163 11.3117 8.13677 11.3117C10.2519 11.3117 11.958 9.60835 11.958 7.49663C11.958 5.38491 10.2519 3.68159 8.13677 3.68159ZM8.13677 9.9769C6.76991 9.9769 5.65248 8.8646 5.65248 7.49663C5.65248 6.12866 6.76658 5.01636 8.13677 5.01636C9.50695 5.01636 10.6211 6.12866 10.6211 7.49663C10.6211 8.8646 9.50363 9.9769 8.13677 9.9769ZM13.0056 3.52554C13.0056 4.02026 12.6065 4.41538 12.1143 4.41538C11.6188 4.41538 11.223 4.01694 11.223 3.52554C11.223 3.03413 11.6221 2.63569 12.1143 2.63569C12.6065 2.63569 13.0056 3.03413 13.0056 3.52554ZM15.5364 4.42866C15.4799 3.23667 15.2072 2.18081 14.3325 1.31089C13.4612 0.440967 12.4036 0.168701 11.2097 0.108936C9.9792 0.039209 6.29101 0.039209 5.0605 0.108936C3.8699 0.165381 2.81233 0.437646 1.93768 1.30757C1.06302 2.17749 0.793639 3.23335 0.733776 4.42534C0.663937 5.65386 0.663937 9.33608 0.733776 10.5646C0.790313 11.7566 1.06302 12.8124 1.93768 13.6824C2.81233 14.5523 3.86658 14.8246 5.0605 14.8843C6.29101 14.9541 9.9792 14.9541 11.2097 14.8843C12.4036 14.8279 13.4612 14.5556 14.3325 13.6824C15.2039 12.8124 15.4766 11.7566 15.5364 10.5646C15.6063 9.33608 15.6063 5.65718 15.5364 4.42866ZM13.9468 11.8828C13.6874 12.5335 13.1852 13.0349 12.53 13.2972C11.5489 13.6857 9.22094 13.596 8.13677 13.596C7.05259 13.596 4.72128 13.6824 3.74353 13.2972C3.09169 13.0382 2.58951 12.5369 2.32678 11.8828C1.93768 10.9033 2.02747 8.57905 2.02747 7.49663C2.02747 6.41421 1.941 4.08667 2.32678 3.1105C2.58619 2.45972 3.08837 1.95835 3.74353 1.69604C4.72461 1.30757 7.05259 1.39722 8.13677 1.39722C9.22094 1.39722 11.5523 1.31089 12.53 1.69604C13.1818 1.95503 13.684 2.4564 13.9468 3.1105C14.3359 4.08999 14.2461 6.41421 14.2461 7.49663C14.2461 8.57905 14.3359 10.9066 13.9468 11.8828Z"/>
</svg>
