<svg width="32" height="32" viewBox="0 0 17 14" xmlns="http://www.w3.org/2000/svg">
<path d="M14.4179 3.741C14.428 3.88313 14.428 4.02529 14.428 4.16741C14.428 8.50241 11.1507 13.4973 5.16084 13.4973C3.31546 13.4973 1.6012 12.9593 0.15918 12.0253C0.421373 12.0557 0.673447 12.0659 0.945728 12.0659C2.46839 12.0659 3.87008 11.5481 4.98941 10.6649C3.55748 10.6344 2.35748 9.69025 1.94403 8.39075C2.14573 8.42119 2.34739 8.4415 2.55918 8.4415C2.8516 8.4415 3.14406 8.40088 3.41631 8.32985C1.92388 8.02525 0.804528 6.70547 0.804528 5.11157V5.07097C1.23812 5.31463 1.74236 5.46691 2.27678 5.48719C1.39947 4.89835 0.824704 3.89329 0.824704 2.75622C0.824704 2.1471 0.986018 1.58872 1.26839 1.10141C2.87175 3.09125 5.28183 4.39072 7.98431 4.53288C7.9339 4.28922 7.90364 4.03544 7.90364 3.78163C7.90364 1.9745 9.35574 0.502441 11.1608 0.502441C12.0986 0.502441 12.9456 0.898379 13.5406 1.53797C14.2767 1.39585 14.9826 1.12172 15.6078 0.746098C15.3658 1.50754 14.8515 2.14713 14.1759 2.55319C14.8313 2.48216 15.4666 2.29938 16.0515 2.0456C15.6079 2.69532 15.0532 3.27397 14.4179 3.741Z"/>
</svg>
